<?xml version="1.0" encoding="utf-8"?>
<svg viewBox="0 0 640 512" style="fill:#50926ee2;" xmlns="http://www.w3.org/2000/svg">
  <rect width="640" height="512" fill="none" transform="matrix(1, 0, 0, 1, 0, -7.105427357601002e-15)"/>
  <path d="M0 128C0 92.7 28.7 64 64 64h192l48 0 16 0h256c35.3 0 64 28.7 64 64v256c0 35.3-28.7 64-64 64H320l-16 0-48 0H64c-35.3 0-64-28.7-64-64V128zm320 0v256h256V128H320zM178.3 175.9c-3.2-7.2-10.4-11.9-18.3-11.9s-15.1 4.7-18.3 11.9l-64 144c-4.5 10.1 .1 21.9 10.2 26.4s21.9-.1 26.4-10.2l8.9-20.1h73.6l8.9 20.1c4.5 10.1 16.3 14.6 26.4 10.2s14.6-16.3 10.2-26.4l-64-144zM160 233.2L179 276h-38l19-42.8z" transform="matrix(1, 0, 0, 1, 0, -7.105427357601002e-15)"/>
  <text style="white-space: pre; font-size: 15px;" x="315.228" y="428.788" transform="matrix(1, 0, 0, 1, 0, -7.105427357601002e-15)">ع
</text>
  <text style="white-space: pre; font-size: 15px;" x="446.409" y="263.342" transform="matrix(18.937959671020508, 0, 0, 18.95420265197754, -8077.17236328125, -4673.4638671875)">ع
</text>
</svg>